<svg width="76" height="76" viewBox="0 0 76 76" fill="none" xmlns="http://www.w3.org/2000/svg">
<path d="M38 72.9994C57.3299 72.9994 73 57.3295 73 37.9997C73 18.6699 57.3299 3 38 3C18.6701 3 3 18.6699 3 37.9997C3 57.3295 18.6701 72.9994 38 72.9994Z" stroke="black" stroke-width="6"/>
<path d="M48.1752 26.7054C48.1752 32.3256 43.6191 36.8818 37.9987 36.8818C32.3784 36.8818 27.8223 32.3256 27.8223 26.7054C27.8223 21.0852 32.3784 16.5291 37.9987 16.5291C43.6191 16.5291 48.1752 21.0852 48.1752 26.7054Z" stroke="black" stroke-width="6"/>
<path d="M54.9409 70C54.9409 59.6042 47.3561 51.1767 37.9998 51.1767C28.6434 51.1767 21.0586 59.6042 21.0586 70" stroke="black" stroke-width="6"/>
</svg>
