<svg width="22" height="21" viewBox="0 0 22 21" fill="none" xmlns="http://www.w3.org/2000/svg">
<path d="M10.6 20C15.8767 20 20.168 15.7542 20.168 10.5C20.168 5.2458 15.8767 1 10.6 1C5.32325 1 1.03198 5.2458 1.03198 10.5C1.03198 15.7542 5.32325 20 10.6 20Z" stroke="black" stroke-width="2"/>
<path d="M7.07196 18C7.87836 16.3689 12.3136 12.2911 19.168 13.1066" stroke="black" stroke-width="2" stroke-linecap="round" stroke-linejoin="round"/>
<path d="M9.33298 10.8789C7.42594 8.41052 7.07196 8.15718 7.07196 7.25C7.07196 6.00736 8.2002 5 9.59196 5C10.9837 5 12.112 6.00736 12.112 7.25C12.112 8.15718 11.758 8.41052 9.85094 10.8789C9.7258 11.0404 9.45811 11.0403 9.33298 10.8789Z" stroke="black" stroke-width="2"/>
</svg>
