<svg width="22" height="22" viewBox="0 0 22 22" fill="none" xmlns="http://www.w3.org/2000/svg">
<path d="M9.64631 21C14.2801 21 18.0686 17.3085 18.0686 12.7155C18.0686 8.12255 14.2801 4.43106 9.64631 4.43106C5.01255 4.43106 1.224 8.12255 1.224 12.7155C1.224 17.3085 5.01255 21 9.64631 21Z" stroke="#4631D2" stroke-width="2"/>
<path d="M12.2035 13.6706C14.054 12.8232 15.7385 11.0582 15.825 8.26594L19.5193 5.10105C19.5199 5.10052 19.5206 5.09998 19.5212 5.09945C20.1417 4.57042 20.4627 3.46517 19.706 2.69618L18.7434 1.71786C18.0271 0.989931 16.981 1.22396 16.4254 1.77077L6.92576 11.1196C6.37423 11.6623 6.1176 12.7069 6.83558 13.4366C7.45982 14.071 8.42255 14.2909 9.294 14.3043C10.2101 14.3184 11.2397 14.112 12.2035 13.6706Z" fill="white" stroke="#4631D2" stroke-width="2"/>
</svg>
