<svg width="22" height="21" viewBox="0 0 22 21" fill="none" xmlns="http://www.w3.org/2000/svg">
<path d="M11.2 20C16.4767 20 20.768 15.7542 20.768 10.5C20.768 5.2458 16.4767 1 11.2 1C5.92323 1 1.63196 5.2458 1.63196 10.5C1.63196 15.7542 5.92323 20 11.2 20Z" stroke="black" stroke-width="2"/>
<path d="M13.728 7.5C13.728 8.87321 12.6037 10 11.2 10C9.79629 10 8.672 8.87321 8.672 7.5C8.672 6.12679 9.79629 5 11.2 5C12.6037 5 13.728 6.12679 13.728 7.5Z" stroke="black" stroke-width="2"/>
<path d="M15.736 19C15.736 16.2386 13.7051 14 11.1999 14C8.69478 14 6.66394 16.2386 6.66394 19" stroke="black" stroke-width="2"/>
</svg>
