<svg width="82" height="84" viewBox="0 0 82 84" fill="none" xmlns="http://www.w3.org/2000/svg">
<g filter="url(#filter0_d_2_862)">
<circle cx="42" cy="36" r="24" fill="white"/>
</g>
<g filter="url(#filter1_d_2_862)">
<path d="M32.8016 36.3197L49.4301 28.1685C49.6869 28.0426 49.9574 28.3131 49.8315 28.5699L41.6803 45.1984C41.5652 45.4332 41.2204 45.4216 41.1171 45.1814C40.6016 43.9827 39.3841 41.3763 38.0039 39.9961C36.6237 38.6159 34.0173 37.3984 32.8186 36.8829C32.5784 36.7796 32.5668 36.4348 32.8016 36.3197Z" fill="white"/>
<path d="M32.8016 36.3197L49.4301 28.1685C49.6869 28.0426 49.9574 28.3131 49.8315 28.5699L41.6803 45.1984C41.5652 45.4332 41.2204 45.4216 41.1171 45.1814C40.6016 43.9827 39.3841 41.3763 38.0039 39.9961C36.6237 38.6159 34.0173 37.3984 32.8186 36.8829C32.5784 36.7796 32.5668 36.4348 32.8016 36.3197Z" stroke="black" stroke-width="2" stroke-linecap="round" stroke-linejoin="round"/>
</g>
<defs>
<filter id="filter0_d_2_862" x="0" y="0" width="84" height="84" filterUnits="userSpaceOnUse" color-interpolation-filters="sRGB">
<feFlood flood-opacity="0" result="BackgroundImageFix"/>
<feColorMatrix in="SourceAlpha" type="matrix" values="0 0 0 0 0 0 0 0 0 0 0 0 0 0 0 0 0 0 127 0" result="hardAlpha"/>
<feOffset dy="6"/>
<feGaussianBlur stdDeviation="9"/>
<feColorMatrix type="matrix" values="0 0 0 0 0 0 0 0 0 0 0 0 0 0 0 0 0 0 0.08 0"/>
<feBlend mode="normal" in2="BackgroundImageFix" result="effect1_dropShadow_2_862"/>
<feBlend mode="normal" in="SourceGraphic" in2="effect1_dropShadow_2_862" result="shape"/>
</filter>
<filter id="filter1_d_2_862" x="26.6316" y="23.1325" width="29.2358" height="29.236" filterUnits="userSpaceOnUse" color-interpolation-filters="sRGB">
<feFlood flood-opacity="0" result="BackgroundImageFix"/>
<feColorMatrix in="SourceAlpha" type="matrix" values="0 0 0 0 0 0 0 0 0 0 0 0 0 0 0 0 0 0 127 0" result="hardAlpha"/>
<feOffset dy="1"/>
<feGaussianBlur stdDeviation="2.5"/>
<feColorMatrix type="matrix" values="0 0 0 0 0 0 0 0 0 0 0 0 0 0 0 0 0 0 0.1 0"/>
<feBlend mode="normal" in2="BackgroundImageFix" result="effect1_dropShadow_2_862"/>
<feBlend mode="normal" in="SourceGraphic" in2="effect1_dropShadow_2_862" result="shape"/>
</filter>
</defs>
</svg>
